<svg xmlns="http://www.w3.org/2000/svg" viewBox="0 0 512 512">
  <rect width="512" height="512" rx="112" fill="#6366F1"/>
  <!-- Notepad body -->
  <rect x="124" y="130" width="264" height="282" rx="20" fill="white"/>
  <!-- Top bar -->
  <rect x="124" y="130" width="264" height="48" rx="20" fill="#e0e7ff"/>
  <rect x="124" y="154" width="264" height="24" fill="#e0e7ff"/>
  <!-- Spiral holes -->
  <circle cx="200" cy="154" r="12" fill="#6366F1"/>
  <circle cx="200" cy="154" r="6" fill="#e0e7ff"/>
  <circle cx="256" cy="154" r="12" fill="#6366F1"/>
  <circle cx="256" cy="154" r="6" fill="#e0e7ff"/>
  <circle cx="312" cy="154" r="12" fill="#6366F1"/>
  <circle cx="312" cy="154" r="6" fill="#e0e7ff"/>
  <!-- Lines -->
  <rect x="160" y="216" width="192" height="14" rx="7" fill="#c7d2fe"/>
  <rect x="160" y="252" width="192" height="14" rx="7" fill="#c7d2fe"/>
  <rect x="160" y="288" width="148" height="14" rx="7" fill="#c7d2fe"/>
  <rect x="160" y="324" width="168" height="14" rx="7" fill="#e0e7ff"/>
  <!-- Pencil -->
  <g transform="translate(334,344) rotate(-42)">
    <rect x="-13" y="-60" width="26" height="20" rx="5" fill="#fda4af"/>
    <rect x="-13" y="-40" width="26" height="98" rx="3" fill="#fbbf24"/>
    <rect x="-13" y="58" width="26" height="18" rx="2" fill="#fde68a"/>
    <polygon points="-13,76 13,76 0,100" fill="#1f2937"/>
  </g>
</svg>
