<svg xmlns="http://www.w3.org/2000/svg" viewBox="0 0 512 512">
  <defs>
    <linearGradient id="bg" x1="0" y1="0" x2="1" y2="1">
      <stop offset="0%" stop-color="#818cf8"/>
      <stop offset="100%" stop-color="#6366f1"/>
    </linearGradient>
  </defs>
  <rect width="512" height="512" rx="112" fill="url(#bg)"/>
  <!-- Notebook body -->
  <rect x="108" y="88" width="264" height="316" rx="22" fill="white"/>
  <!-- Notebook top bar -->
  <rect x="108" y="88" width="264" height="52" rx="22" fill="#e0e7ff"/>
  <rect x="108" y="116" width="264" height="24" fill="#e0e7ff"/>
  <!-- Spiral rings -->
  <circle cx="178" cy="114" r="14" fill="#6366f1"/>
  <circle cx="178" cy="114" r="7" fill="#c7d2fe"/>
  <circle cx="240" cy="114" r="14" fill="#6366f1"/>
  <circle cx="240" cy="114" r="7" fill="#c7d2fe"/>
  <circle cx="302" cy="114" r="14" fill="#6366f1"/>
  <circle cx="302" cy="114" r="7" fill="#c7d2fe"/>
  <!-- Lines -->
  <rect x="144" y="184" width="192" height="14" rx="7" fill="#c7d2fe"/>
  <rect x="144" y="224" width="192" height="14" rx="7" fill="#c7d2fe"/>
  <rect x="144" y="264" width="152" height="14" rx="7" fill="#c7d2fe"/>
  <rect x="144" y="304" width="172" height="14" rx="7" fill="#e0e7ff"/>
  <!-- Pencil (rotated, bottom-right) -->
  <g transform="translate(346,358) rotate(-42)">
    <rect x="-14" y="-68" width="28" height="22" rx="6" fill="#fda4af"/>
    <rect x="-14" y="-46" width="28" height="108" rx="4" fill="#fbbf24"/>
    <rect x="-14" y="62" width="28" height="18" rx="2" fill="#fde68a"/>
    <polygon points="-14,80 14,80 0,104" fill="#374151"/>
  </g>
</svg>
